<mxfile host="65bd71144e">
    <diagram id="C5RBs43oDa-KdzZeNtuy" name="Page-1">
        <mxGraphModel dx="2045" dy="467" grid="1" gridSize="10" guides="1" tooltips="1" connect="1" arrows="1" fold="1" page="1" pageScale="1" pageWidth="827" pageHeight="1169" math="0" shadow="0">
            <root>
                <mxCell id="WIyWlLk6GJQsqaUBKTNV-0"/>
                <mxCell id="WIyWlLk6GJQsqaUBKTNV-1" parent="WIyWlLk6GJQsqaUBKTNV-0"/>
                <mxCell id="WIyWlLk6GJQsqaUBKTNV-2" value="" style="rounded=0;html=1;jettySize=auto;orthogonalLoop=1;fontSize=11;endArrow=block;endFill=0;endSize=8;strokeWidth=1;shadow=0;labelBackgroundColor=none;edgeStyle=orthogonalEdgeStyle;entryX=0.5;entryY=0;entryDx=0;entryDy=0;fillColor=#d5e8d4;strokeColor=#82b366;" parent="WIyWlLk6GJQsqaUBKTNV-1" source="WIyWlLk6GJQsqaUBKTNV-3" target="wOuYYhRdnnkw3Hqy9nZg-0" edge="1">
                    <mxGeometry relative="1" as="geometry">
                        <mxPoint x="220" y="170" as="targetPoint"/>
                        <Array as="points">
                            <mxPoint x="400" y="110"/>
                            <mxPoint x="400" y="110"/>
                        </Array>
                    </mxGeometry>
                </mxCell>
                <mxCell id="WIyWlLk6GJQsqaUBKTNV-3" value="order request&amp;nbsp;" style="rounded=1;whiteSpace=wrap;html=1;fontSize=12;glass=0;strokeWidth=1;shadow=0;" parent="WIyWlLk6GJQsqaUBKTNV-1" vertex="1">
                    <mxGeometry x="340" y="10" width="120" height="40" as="geometry"/>
                </mxCell>
                <mxCell id="wOuYYhRdnnkw3Hqy9nZg-3" value="" style="edgeStyle=orthogonalEdgeStyle;rounded=0;orthogonalLoop=1;jettySize=auto;html=1;fillColor=#d5e8d4;strokeColor=#82b366;" parent="WIyWlLk6GJQsqaUBKTNV-1" source="wOuYYhRdnnkw3Hqy9nZg-0" target="wOuYYhRdnnkw3Hqy9nZg-2" edge="1">
                    <mxGeometry relative="1" as="geometry"/>
                </mxCell>
                <mxCell id="wOuYYhRdnnkw3Hqy9nZg-0" value="API gateway" style="rounded=1;whiteSpace=wrap;html=1;fontSize=12;glass=0;strokeWidth=1;shadow=0;" parent="WIyWlLk6GJQsqaUBKTNV-1" vertex="1">
                    <mxGeometry x="340" y="160" width="120" height="40" as="geometry"/>
                </mxCell>
                <mxCell id="wOuYYhRdnnkw3Hqy9nZg-9" value="" style="edgeStyle=orthogonalEdgeStyle;rounded=0;orthogonalLoop=1;jettySize=auto;html=1;fillColor=#d5e8d4;strokeColor=#82b366;" parent="WIyWlLk6GJQsqaUBKTNV-1" source="wOuYYhRdnnkw3Hqy9nZg-2" target="wOuYYhRdnnkw3Hqy9nZg-8" edge="1">
                    <mxGeometry relative="1" as="geometry"/>
                </mxCell>
                <mxCell id="wOuYYhRdnnkw3Hqy9nZg-11" value="" style="edgeStyle=orthogonalEdgeStyle;rounded=0;orthogonalLoop=1;jettySize=auto;html=1;fillColor=#d5e8d4;strokeColor=#82b366;exitX=0.5;exitY=1;exitDx=0;exitDy=0;" parent="WIyWlLk6GJQsqaUBKTNV-1" source="wOuYYhRdnnkw3Hqy9nZg-2" target="wOuYYhRdnnkw3Hqy9nZg-10" edge="1">
                    <mxGeometry relative="1" as="geometry"/>
                </mxCell>
                <mxCell id="wOuYYhRdnnkw3Hqy9nZg-17" value="" style="edgeStyle=orthogonalEdgeStyle;rounded=0;orthogonalLoop=1;jettySize=auto;html=1;" parent="WIyWlLk6GJQsqaUBKTNV-1" source="wOuYYhRdnnkw3Hqy9nZg-2" target="wOuYYhRdnnkw3Hqy9nZg-16" edge="1">
                    <mxGeometry relative="1" as="geometry"/>
                </mxCell>
                <mxCell id="wOuYYhRdnnkw3Hqy9nZg-2" value="routes" style="whiteSpace=wrap;html=1;rounded=1;glass=0;strokeWidth=1;shadow=0;" parent="WIyWlLk6GJQsqaUBKTNV-1" vertex="1">
                    <mxGeometry x="345" y="267.5" width="110" height="30" as="geometry"/>
                </mxCell>
                <mxCell id="wOuYYhRdnnkw3Hqy9nZg-20" value="" style="edgeStyle=orthogonalEdgeStyle;rounded=0;orthogonalLoop=1;jettySize=auto;html=1;fillColor=#d5e8d4;strokeColor=#82b366;" parent="WIyWlLk6GJQsqaUBKTNV-1" source="wOuYYhRdnnkw3Hqy9nZg-8" target="wOuYYhRdnnkw3Hqy9nZg-19" edge="1">
                    <mxGeometry relative="1" as="geometry"/>
                </mxCell>
                <mxCell id="wOuYYhRdnnkw3Hqy9nZg-8" value="create order" style="whiteSpace=wrap;html=1;rounded=1;glass=0;strokeWidth=1;shadow=0;" parent="WIyWlLk6GJQsqaUBKTNV-1" vertex="1">
                    <mxGeometry x="160" y="265" width="100" height="35" as="geometry"/>
                </mxCell>
                <mxCell id="wOuYYhRdnnkw3Hqy9nZg-13" value="" style="edgeStyle=orthogonalEdgeStyle;rounded=0;orthogonalLoop=1;jettySize=auto;html=1;" parent="WIyWlLk6GJQsqaUBKTNV-1" source="wOuYYhRdnnkw3Hqy9nZg-10" target="wOuYYhRdnnkw3Hqy9nZg-12" edge="1">
                    <mxGeometry relative="1" as="geometry"/>
                </mxCell>
                <mxCell id="wOuYYhRdnnkw3Hqy9nZg-15" value="" style="edgeStyle=orthogonalEdgeStyle;rounded=0;orthogonalLoop=1;jettySize=auto;html=1;" parent="WIyWlLk6GJQsqaUBKTNV-1" source="wOuYYhRdnnkw3Hqy9nZg-10" target="wOuYYhRdnnkw3Hqy9nZg-14" edge="1">
                    <mxGeometry relative="1" as="geometry"/>
                </mxCell>
                <mxCell id="wOuYYhRdnnkw3Hqy9nZg-10" value="" style="shape=waypoint;sketch=0;size=6;pointerEvents=1;points=[];fillColor=default;resizable=0;rotatable=0;perimeter=centerPerimeter;snapToPoint=1;rounded=1;glass=0;strokeWidth=1;shadow=0;" parent="WIyWlLk6GJQsqaUBKTNV-1" vertex="1">
                    <mxGeometry x="390" y="415" width="20" height="20" as="geometry"/>
                </mxCell>
                <mxCell id="wOuYYhRdnnkw3Hqy9nZg-43" value="" style="edgeStyle=orthogonalEdgeStyle;rounded=0;orthogonalLoop=1;jettySize=auto;html=1;fillColor=#d5e8d4;strokeColor=#82b366;" parent="WIyWlLk6GJQsqaUBKTNV-1" source="wOuYYhRdnnkw3Hqy9nZg-12" target="wOuYYhRdnnkw3Hqy9nZg-42" edge="1">
                    <mxGeometry relative="1" as="geometry"/>
                </mxCell>
                <mxCell id="wOuYYhRdnnkw3Hqy9nZg-12" value="update order" style="whiteSpace=wrap;html=1;sketch=0;pointerEvents=1;resizable=0;rounded=1;glass=0;strokeWidth=1;shadow=0;" parent="WIyWlLk6GJQsqaUBKTNV-1" vertex="1">
                    <mxGeometry x="720" y="395" width="120" height="60" as="geometry"/>
                </mxCell>
                <mxCell id="wOuYYhRdnnkw3Hqy9nZg-27" value="" style="edgeStyle=orthogonalEdgeStyle;rounded=0;orthogonalLoop=1;jettySize=auto;html=1;fillColor=#d5e8d4;strokeColor=#82b366;" parent="WIyWlLk6GJQsqaUBKTNV-1" source="wOuYYhRdnnkw3Hqy9nZg-14" edge="1">
                    <mxGeometry relative="1" as="geometry">
                        <mxPoint x="300" y="525" as="targetPoint"/>
                    </mxGeometry>
                </mxCell>
                <mxCell id="wOuYYhRdnnkw3Hqy9nZg-14" value="delete order" style="whiteSpace=wrap;html=1;sketch=0;pointerEvents=1;resizable=0;rounded=1;glass=0;strokeWidth=1;shadow=0;arcSize=15;" parent="WIyWlLk6GJQsqaUBKTNV-1" vertex="1">
                    <mxGeometry x="240" y="395" width="120" height="60" as="geometry"/>
                </mxCell>
                <mxCell id="wOuYYhRdnnkw3Hqy9nZg-48" value="" style="edgeStyle=orthogonalEdgeStyle;rounded=0;orthogonalLoop=1;jettySize=auto;html=1;" parent="WIyWlLk6GJQsqaUBKTNV-1" source="wOuYYhRdnnkw3Hqy9nZg-16" target="wOuYYhRdnnkw3Hqy9nZg-47" edge="1">
                    <mxGeometry relative="1" as="geometry"/>
                </mxCell>
                <mxCell id="wOuYYhRdnnkw3Hqy9nZg-16" value="get order requests" style="whiteSpace=wrap;html=1;rounded=1;glass=0;strokeWidth=1;shadow=0;" parent="WIyWlLk6GJQsqaUBKTNV-1" vertex="1">
                    <mxGeometry x="970" y="150" width="110" height="35" as="geometry"/>
                </mxCell>
                <mxCell id="wOuYYhRdnnkw3Hqy9nZg-23" value="" style="edgeStyle=orthogonalEdgeStyle;rounded=0;orthogonalLoop=1;jettySize=auto;html=1;fillColor=#d5e8d4;strokeColor=#82b366;" parent="WIyWlLk6GJQsqaUBKTNV-1" source="wOuYYhRdnnkw3Hqy9nZg-19" target="wOuYYhRdnnkw3Hqy9nZg-22" edge="1">
                    <mxGeometry relative="1" as="geometry"/>
                </mxCell>
                <mxCell id="wOuYYhRdnnkw3Hqy9nZg-25" value="" style="edgeStyle=orthogonalEdgeStyle;rounded=0;orthogonalLoop=1;jettySize=auto;html=1;fillColor=#f8cecc;strokeColor=#b85450;" parent="WIyWlLk6GJQsqaUBKTNV-1" source="wOuYYhRdnnkw3Hqy9nZg-19" target="wOuYYhRdnnkw3Hqy9nZg-24" edge="1">
                    <mxGeometry relative="1" as="geometry"/>
                </mxCell>
                <mxCell id="wOuYYhRdnnkw3Hqy9nZg-19" value="is purchase order schema followed?" style="rhombus;whiteSpace=wrap;html=1;rounded=1;glass=0;strokeWidth=1;shadow=0;" parent="WIyWlLk6GJQsqaUBKTNV-1" vertex="1">
                    <mxGeometry x="-60" y="242.5" width="130" height="117.5" as="geometry"/>
                </mxCell>
                <mxCell id="wOuYYhRdnnkw3Hqy9nZg-21" value="yes&lt;div&gt;&lt;br&gt;&lt;/div&gt;" style="text;html=1;align=center;verticalAlign=middle;resizable=0;points=[];autosize=1;strokeColor=none;fillColor=none;" parent="WIyWlLk6GJQsqaUBKTNV-1" vertex="1">
                    <mxGeometry x="-40" y="340" width="40" height="40" as="geometry"/>
                </mxCell>
                <mxCell id="wOuYYhRdnnkw3Hqy9nZg-22" value="create new instance based on schema" style="whiteSpace=wrap;html=1;rounded=1;glass=0;strokeWidth=1;shadow=0;" parent="WIyWlLk6GJQsqaUBKTNV-1" vertex="1">
                    <mxGeometry x="-55" y="468.75" width="120" height="60" as="geometry"/>
                </mxCell>
                <mxCell id="wOuYYhRdnnkw3Hqy9nZg-24" value="error" style="whiteSpace=wrap;html=1;rounded=1;glass=0;strokeWidth=1;shadow=0;" parent="WIyWlLk6GJQsqaUBKTNV-1" vertex="1">
                    <mxGeometry x="-265" y="271.25" width="120" height="60" as="geometry"/>
                </mxCell>
                <mxCell id="wOuYYhRdnnkw3Hqy9nZg-30" value="" style="edgeStyle=orthogonalEdgeStyle;rounded=0;orthogonalLoop=1;jettySize=auto;html=1;fillColor=#d5e8d4;strokeColor=#82b366;" parent="WIyWlLk6GJQsqaUBKTNV-1" target="wOuYYhRdnnkw3Hqy9nZg-29" edge="1">
                    <mxGeometry relative="1" as="geometry">
                        <mxPoint x="300" y="605" as="sourcePoint"/>
                    </mxGeometry>
                </mxCell>
                <mxCell id="wOuYYhRdnnkw3Hqy9nZg-32" value="" style="edgeStyle=orthogonalEdgeStyle;rounded=0;orthogonalLoop=1;jettySize=auto;html=1;fillColor=#f8cecc;strokeColor=#b85450;" parent="WIyWlLk6GJQsqaUBKTNV-1" target="wOuYYhRdnnkw3Hqy9nZg-31" edge="1">
                    <mxGeometry relative="1" as="geometry">
                        <mxPoint x="340" y="565" as="sourcePoint"/>
                        <Array as="points">
                            <mxPoint x="340" y="560"/>
                        </Array>
                    </mxGeometry>
                </mxCell>
                <mxCell id="wOuYYhRdnnkw3Hqy9nZg-29" value="Delete Order&amp;nbsp; from database&lt;div&gt;&lt;br&gt;&lt;/div&gt;" style="whiteSpace=wrap;html=1;sketch=0;pointerEvents=1;resizable=0;rounded=1;glass=0;strokeWidth=1;shadow=0;arcSize=15;" parent="WIyWlLk6GJQsqaUBKTNV-1" vertex="1">
                    <mxGeometry x="210" y="695" width="120" height="60" as="geometry"/>
                </mxCell>
                <mxCell id="wOuYYhRdnnkw3Hqy9nZg-31" value="Error:order not found" style="whiteSpace=wrap;html=1;sketch=0;pointerEvents=1;resizable=0;rounded=1;glass=0;strokeWidth=1;shadow=0;arcSize=15;" parent="WIyWlLk6GJQsqaUBKTNV-1" vertex="1">
                    <mxGeometry x="410" y="528.75" width="120" height="60" as="geometry"/>
                </mxCell>
                <mxCell id="wOuYYhRdnnkw3Hqy9nZg-34" value="is id present in database?" style="rhombus;whiteSpace=wrap;html=1;" parent="WIyWlLk6GJQsqaUBKTNV-1" vertex="1">
                    <mxGeometry x="245" y="515" width="110" height="95" as="geometry"/>
                </mxCell>
                <mxCell id="wOuYYhRdnnkw3Hqy9nZg-35" value="No" style="text;html=1;align=center;verticalAlign=middle;resizable=0;points=[];autosize=1;strokeColor=none;fillColor=none;" parent="WIyWlLk6GJQsqaUBKTNV-1" vertex="1">
                    <mxGeometry x="340" y="528" width="40" height="30" as="geometry"/>
                </mxCell>
                <mxCell id="wOuYYhRdnnkw3Hqy9nZg-36" value="yes" style="text;html=1;align=center;verticalAlign=middle;resizable=0;points=[];autosize=1;strokeColor=none;fillColor=none;" parent="WIyWlLk6GJQsqaUBKTNV-1" vertex="1">
                    <mxGeometry x="310" y="600" width="40" height="30" as="geometry"/>
                </mxCell>
                <mxCell id="wOuYYhRdnnkw3Hqy9nZg-37" value="Orders&amp;nbsp; DB" style="shape=cylinder3;whiteSpace=wrap;html=1;boundedLbl=1;backgroundOutline=1;size=15;" parent="WIyWlLk6GJQsqaUBKTNV-1" vertex="1">
                    <mxGeometry x="210" y="850" width="120" height="130" as="geometry"/>
                </mxCell>
                <mxCell id="wOuYYhRdnnkw3Hqy9nZg-38" value="" style="endArrow=classic;html=1;rounded=0;exitX=0.5;exitY=1;exitDx=0;exitDy=0;entryX=0.5;entryY=0;entryDx=0;entryDy=0;entryPerimeter=0;fillColor=#d5e8d4;strokeColor=#82b366;" parent="WIyWlLk6GJQsqaUBKTNV-1" source="wOuYYhRdnnkw3Hqy9nZg-29" target="wOuYYhRdnnkw3Hqy9nZg-37" edge="1">
                    <mxGeometry width="50" height="50" relative="1" as="geometry">
                        <mxPoint x="330" y="820" as="sourcePoint"/>
                        <mxPoint x="280" y="840" as="targetPoint"/>
                    </mxGeometry>
                </mxCell>
                <mxCell id="wOuYYhRdnnkw3Hqy9nZg-39" value="" style="endArrow=classic;html=1;rounded=0;entryX=0;entryY=0.5;entryDx=0;entryDy=0;entryPerimeter=0;fillColor=#d5e8d4;strokeColor=#82b366;" parent="WIyWlLk6GJQsqaUBKTNV-1" target="wOuYYhRdnnkw3Hqy9nZg-37" edge="1">
                    <mxGeometry width="50" height="50" relative="1" as="geometry">
                        <mxPoint y="530" as="sourcePoint"/>
                        <mxPoint y="930" as="targetPoint"/>
                        <Array as="points">
                            <mxPoint y="920"/>
                        </Array>
                    </mxGeometry>
                </mxCell>
                <mxCell id="wOuYYhRdnnkw3Hqy9nZg-40" value="order present?" style="rhombus;whiteSpace=wrap;html=1;" parent="WIyWlLk6GJQsqaUBKTNV-1" vertex="1">
                    <mxGeometry x="735" y="680" width="90" height="90" as="geometry"/>
                </mxCell>
                <mxCell id="wOuYYhRdnnkw3Hqy9nZg-41" value="" style="endArrow=classic;html=1;rounded=0;entryX=0.5;entryY=0;entryDx=0;entryDy=0;exitX=0.5;exitY=1;exitDx=0;exitDy=0;fillColor=#d5e8d4;strokeColor=#82b366;" parent="WIyWlLk6GJQsqaUBKTNV-1" source="wOuYYhRdnnkw3Hqy9nZg-42" target="wOuYYhRdnnkw3Hqy9nZg-40" edge="1">
                    <mxGeometry width="50" height="50" relative="1" as="geometry">
                        <mxPoint x="780" y="580" as="sourcePoint"/>
                        <mxPoint x="770" y="520" as="targetPoint"/>
                        <Array as="points"/>
                    </mxGeometry>
                </mxCell>
                <mxCell id="wOuYYhRdnnkw3Hqy9nZg-46" value="" style="edgeStyle=orthogonalEdgeStyle;rounded=0;orthogonalLoop=1;jettySize=auto;html=1;fillColor=#f8cecc;strokeColor=#b85450;" parent="WIyWlLk6GJQsqaUBKTNV-1" source="wOuYYhRdnnkw3Hqy9nZg-42" target="wOuYYhRdnnkw3Hqy9nZg-45" edge="1">
                    <mxGeometry relative="1" as="geometry"/>
                </mxCell>
                <mxCell id="wOuYYhRdnnkw3Hqy9nZg-42" value="update based on id or other forms of uniqueness" style="whiteSpace=wrap;html=1;sketch=0;pointerEvents=1;resizable=0;rounded=1;glass=0;strokeWidth=1;shadow=0;" parent="WIyWlLk6GJQsqaUBKTNV-1" vertex="1">
                    <mxGeometry x="720" y="535" width="120" height="60" as="geometry"/>
                </mxCell>
                <mxCell id="wOuYYhRdnnkw3Hqy9nZg-44" value="" style="endArrow=classic;html=1;rounded=0;entryX=1;entryY=0.5;entryDx=0;entryDy=0;entryPerimeter=0;exitX=0.5;exitY=1;exitDx=0;exitDy=0;fillColor=#d5e8d4;strokeColor=#82b366;" parent="WIyWlLk6GJQsqaUBKTNV-1" source="wOuYYhRdnnkw3Hqy9nZg-40" target="wOuYYhRdnnkw3Hqy9nZg-37" edge="1">
                    <mxGeometry width="50" height="50" relative="1" as="geometry">
                        <mxPoint x="780" y="910" as="sourcePoint"/>
                        <mxPoint x="760" y="820" as="targetPoint"/>
                        <Array as="points">
                            <mxPoint x="780" y="915"/>
                        </Array>
                    </mxGeometry>
                </mxCell>
                <mxCell id="wOuYYhRdnnkw3Hqy9nZg-45" value="no such order Error" style="whiteSpace=wrap;html=1;sketch=0;pointerEvents=1;resizable=0;rounded=1;glass=0;strokeWidth=1;shadow=0;" parent="WIyWlLk6GJQsqaUBKTNV-1" vertex="1">
                    <mxGeometry x="920" y="535" width="120" height="60" as="geometry"/>
                </mxCell>
                <mxCell id="wOuYYhRdnnkw3Hqy9nZg-51" value="" style="edgeStyle=orthogonalEdgeStyle;rounded=0;orthogonalLoop=1;jettySize=auto;html=1;" parent="WIyWlLk6GJQsqaUBKTNV-1" source="wOuYYhRdnnkw3Hqy9nZg-47" target="wOuYYhRdnnkw3Hqy9nZg-50" edge="1">
                    <mxGeometry relative="1" as="geometry"/>
                </mxCell>
                <mxCell id="wOuYYhRdnnkw3Hqy9nZg-54" value="" style="edgeStyle=orthogonalEdgeStyle;rounded=0;orthogonalLoop=1;jettySize=auto;html=1;" parent="WIyWlLk6GJQsqaUBKTNV-1" source="wOuYYhRdnnkw3Hqy9nZg-47" target="wOuYYhRdnnkw3Hqy9nZg-53" edge="1">
                    <mxGeometry relative="1" as="geometry"/>
                </mxCell>
                <mxCell id="wOuYYhRdnnkw3Hqy9nZg-47" value="response params conversant with front end?" style="rhombus;whiteSpace=wrap;html=1;rounded=1;glass=0;strokeWidth=1;shadow=0;" parent="WIyWlLk6GJQsqaUBKTNV-1" vertex="1">
                    <mxGeometry x="1175" y="60" width="145" height="170" as="geometry"/>
                </mxCell>
                <mxCell id="wOuYYhRdnnkw3Hqy9nZg-49" value="yes" style="text;html=1;align=center;verticalAlign=middle;resizable=0;points=[];autosize=1;strokeColor=none;fillColor=none;" parent="WIyWlLk6GJQsqaUBKTNV-1" vertex="1">
                    <mxGeometry x="1260" y="212.5" width="40" height="30" as="geometry"/>
                </mxCell>
                <mxCell id="wOuYYhRdnnkw3Hqy9nZg-50" value="retrieve data from database" style="whiteSpace=wrap;html=1;rounded=1;glass=0;strokeWidth=1;shadow=0;" parent="WIyWlLk6GJQsqaUBKTNV-1" vertex="1">
                    <mxGeometry x="1187.5" y="365" width="120" height="60" as="geometry"/>
                </mxCell>
                <mxCell id="wOuYYhRdnnkw3Hqy9nZg-52" value="" style="endArrow=none;dashed=1;html=1;dashPattern=1 3;strokeWidth=2;rounded=0;entryX=0.5;entryY=1;entryDx=0;entryDy=0;exitX=0.5;exitY=1;exitDx=0;exitDy=0;exitPerimeter=0;" parent="WIyWlLk6GJQsqaUBKTNV-1" source="wOuYYhRdnnkw3Hqy9nZg-37" target="wOuYYhRdnnkw3Hqy9nZg-50" edge="1">
                    <mxGeometry width="50" height="50" relative="1" as="geometry">
                        <mxPoint x="1240" y="840" as="sourcePoint"/>
                        <mxPoint x="1265" y="515" as="targetPoint"/>
                        <Array as="points">
                            <mxPoint x="1250" y="980"/>
                        </Array>
                    </mxGeometry>
                </mxCell>
                <mxCell id="wOuYYhRdnnkw3Hqy9nZg-53" value="status:500" style="whiteSpace=wrap;html=1;rounded=1;glass=0;strokeWidth=1;shadow=0;" parent="WIyWlLk6GJQsqaUBKTNV-1" vertex="1">
                    <mxGeometry x="1412.5" y="115" width="120" height="60" as="geometry"/>
                </mxCell>
                <mxCell id="7WCWIDbQqb9u4QPVZEdH-0" value="&lt;div&gt;Sign in Request&lt;/div&gt;" style="whiteSpace=wrap;html=1;" parent="WIyWlLk6GJQsqaUBKTNV-1" vertex="1">
                    <mxGeometry x="-1307.5" y="185" width="120" height="60" as="geometry"/>
                </mxCell>
                <mxCell id="7WCWIDbQqb9u4QPVZEdH-4" value="" style="edgeStyle=orthogonalEdgeStyle;rounded=0;orthogonalLoop=1;jettySize=auto;html=1;exitX=0.5;exitY=1;exitDx=0;exitDy=0;" parent="WIyWlLk6GJQsqaUBKTNV-1" source="0" target="7WCWIDbQqb9u4QPVZEdH-3" edge="1">
                    <mxGeometry relative="1" as="geometry"/>
                </mxCell>
                <mxCell id="7WCWIDbQqb9u4QPVZEdH-1" value="API Gateway" style="whiteSpace=wrap;html=1;" parent="WIyWlLk6GJQsqaUBKTNV-1" vertex="1">
                    <mxGeometry x="-1310" y="305" width="120" height="60" as="geometry"/>
                </mxCell>
                <mxCell id="7WCWIDbQqb9u4QPVZEdH-18" value="" style="edgeStyle=orthogonalEdgeStyle;rounded=0;orthogonalLoop=1;jettySize=auto;html=1;" parent="WIyWlLk6GJQsqaUBKTNV-1" source="7WCWIDbQqb9u4QPVZEdH-3" target="7WCWIDbQqb9u4QPVZEdH-17" edge="1">
                    <mxGeometry relative="1" as="geometry"/>
                </mxCell>
                <mxCell id="7WCWIDbQqb9u4QPVZEdH-3" value="Routes&lt;div&gt;&lt;br&gt;&lt;/div&gt;" style="whiteSpace=wrap;html=1;" parent="WIyWlLk6GJQsqaUBKTNV-1" vertex="1">
                    <mxGeometry x="-1320" y="600" width="120" height="60" as="geometry"/>
                </mxCell>
                <mxCell id="7WCWIDbQqb9u4QPVZEdH-16" value="" style="edgeStyle=orthogonalEdgeStyle;rounded=0;orthogonalLoop=1;jettySize=auto;html=1;entryX=0.5;entryY=0;entryDx=0;entryDy=0;exitX=0.5;exitY=1;exitDx=0;exitDy=0;" parent="WIyWlLk6GJQsqaUBKTNV-1" edge="1" target="7WCWIDbQqb9u4QPVZEdH-1" source="7WCWIDbQqb9u4QPVZEdH-0">
                    <mxGeometry relative="1" as="geometry">
                        <mxPoint x="-1250" y="261.2500000000001" as="sourcePoint"/>
                        <mxPoint x="-1250" y="331.25" as="targetPoint"/>
                    </mxGeometry>
                </mxCell>
                <mxCell id="7WCWIDbQqb9u4QPVZEdH-20" value="" style="edgeStyle=orthogonalEdgeStyle;rounded=0;orthogonalLoop=1;jettySize=auto;html=1;" parent="WIyWlLk6GJQsqaUBKTNV-1" source="7WCWIDbQqb9u4QPVZEdH-17" target="7WCWIDbQqb9u4QPVZEdH-19" edge="1">
                    <mxGeometry relative="1" as="geometry"/>
                </mxCell>
                <mxCell id="7WCWIDbQqb9u4QPVZEdH-17" value="Get User" style="whiteSpace=wrap;html=1;" parent="WIyWlLk6GJQsqaUBKTNV-1" vertex="1">
                    <mxGeometry x="-1110" y="710" width="150" height="60" as="geometry"/>
                </mxCell>
                <mxCell id="7WCWIDbQqb9u4QPVZEdH-19" value="check if user email and password is valid&lt;div&gt;&lt;br&gt;&lt;/div&gt;" style="whiteSpace=wrap;html=1;" parent="WIyWlLk6GJQsqaUBKTNV-1" vertex="1">
                    <mxGeometry x="-1095" y="850" width="120" height="60" as="geometry"/>
                </mxCell>
                <mxCell id="7WCWIDbQqb9u4QPVZEdH-27" value="" style="edgeStyle=orthogonalEdgeStyle;rounded=0;orthogonalLoop=1;jettySize=auto;html=1;" parent="WIyWlLk6GJQsqaUBKTNV-1" source="7WCWIDbQqb9u4QPVZEdH-21" target="7WCWIDbQqb9u4QPVZEdH-25" edge="1">
                    <mxGeometry relative="1" as="geometry"/>
                </mxCell>
                <mxCell id="7WCWIDbQqb9u4QPVZEdH-34" value="" style="edgeStyle=orthogonalEdgeStyle;rounded=0;orthogonalLoop=1;jettySize=auto;html=1;" parent="WIyWlLk6GJQsqaUBKTNV-1" source="7WCWIDbQqb9u4QPVZEdH-21" target="7WCWIDbQqb9u4QPVZEdH-33" edge="1">
                    <mxGeometry relative="1" as="geometry"/>
                </mxCell>
                <mxCell id="7WCWIDbQqb9u4QPVZEdH-21" value="is user information authentic?" style="rhombus;whiteSpace=wrap;html=1;" parent="WIyWlLk6GJQsqaUBKTNV-1" vertex="1">
                    <mxGeometry x="-1100" y="1190" width="130" height="140" as="geometry"/>
                </mxCell>
                <mxCell id="7WCWIDbQqb9u4QPVZEdH-30" value="" style="edgeStyle=orthogonalEdgeStyle;rounded=0;orthogonalLoop=1;jettySize=auto;html=1;" parent="WIyWlLk6GJQsqaUBKTNV-1" source="7WCWIDbQqb9u4QPVZEdH-23" target="7WCWIDbQqb9u4QPVZEdH-28" edge="1">
                    <mxGeometry relative="1" as="geometry"/>
                </mxCell>
                <mxCell id="7WCWIDbQqb9u4QPVZEdH-23" value="return success response asTrue" style="whiteSpace=wrap;html=1;" parent="WIyWlLk6GJQsqaUBKTNV-1" vertex="1">
                    <mxGeometry x="-1077.5" y="1650" width="120" height="60" as="geometry"/>
                </mxCell>
                <mxCell id="7WCWIDbQqb9u4QPVZEdH-25" value="" style="strokeWidth=2;html=1;shape=mxgraph.flowchart.database;whiteSpace=wrap;" parent="WIyWlLk6GJQsqaUBKTNV-1" vertex="1">
                    <mxGeometry x="-1065" y="1040" width="60" height="70" as="geometry"/>
                </mxCell>
                <mxCell id="7WCWIDbQqb9u4QPVZEdH-26" value="" style="endArrow=classic;startArrow=classic;html=1;rounded=0;exitX=0.5;exitY=0;exitDx=0;exitDy=0;exitPerimeter=0;entryX=0.5;entryY=1;entryDx=0;entryDy=0;" parent="WIyWlLk6GJQsqaUBKTNV-1" source="7WCWIDbQqb9u4QPVZEdH-25" target="7WCWIDbQqb9u4QPVZEdH-19" edge="1">
                    <mxGeometry width="50" height="50" relative="1" as="geometry">
                        <mxPoint x="-1070" y="980" as="sourcePoint"/>
                        <mxPoint x="-1020" y="930" as="targetPoint"/>
                    </mxGeometry>
                </mxCell>
                <mxCell id="7WCWIDbQqb9u4QPVZEdH-29" value="" style="edgeStyle=orthogonalEdgeStyle;rounded=0;orthogonalLoop=1;jettySize=auto;html=1;" parent="WIyWlLk6GJQsqaUBKTNV-1" source="7WCWIDbQqb9u4QPVZEdH-28" target="7WCWIDbQqb9u4QPVZEdH-21" edge="1">
                    <mxGeometry relative="1" as="geometry"/>
                </mxCell>
                <mxCell id="7WCWIDbQqb9u4QPVZEdH-28" value="store users login session with token&amp;nbsp; for a set amount of time&amp;nbsp;" style="strokeWidth=2;html=1;shape=mxgraph.flowchart.stored_data;whiteSpace=wrap;" parent="WIyWlLk6GJQsqaUBKTNV-1" vertex="1">
                    <mxGeometry x="-1085" y="1440" width="155" height="100" as="geometry"/>
                </mxCell>
                <mxCell id="7WCWIDbQqb9u4QPVZEdH-31" value="Yes" style="text;html=1;align=center;verticalAlign=middle;resizable=0;points=[];autosize=1;strokeColor=none;fillColor=none;" parent="WIyWlLk6GJQsqaUBKTNV-1" vertex="1">
                    <mxGeometry x="-1027.5" y="1320" width="40" height="30" as="geometry"/>
                </mxCell>
                <mxCell id="7WCWIDbQqb9u4QPVZEdH-32" value="No&lt;div&gt;&lt;br&gt;&lt;/div&gt;" style="text;html=1;align=center;verticalAlign=middle;resizable=0;points=[];autosize=1;strokeColor=none;fillColor=none;" parent="WIyWlLk6GJQsqaUBKTNV-1" vertex="1">
                    <mxGeometry x="-980" y="1213" width="40" height="40" as="geometry"/>
                </mxCell>
                <mxCell id="7WCWIDbQqb9u4QPVZEdH-33" value="send success response as false&amp;nbsp;&lt;div&gt;with error&lt;/div&gt;" style="whiteSpace=wrap;html=1;" parent="WIyWlLk6GJQsqaUBKTNV-1" vertex="1">
                    <mxGeometry x="-885" y="1230" width="120" height="60" as="geometry"/>
                </mxCell>
                <mxCell id="0" value="server" style="rounded=1;whiteSpace=wrap;html=1;absoluteArcSize=1;arcSize=14;strokeWidth=2;" vertex="1" parent="WIyWlLk6GJQsqaUBKTNV-1">
                    <mxGeometry x="-1307.5" y="425" width="117.5" height="71.25" as="geometry"/>
                </mxCell>
                <mxCell id="1" style="edgeStyle=none;html=1;exitX=0.5;exitY=1;exitDx=0;exitDy=0;entryX=0.459;entryY=0.018;entryDx=0;entryDy=0;entryPerimeter=0;" edge="1" parent="WIyWlLk6GJQsqaUBKTNV-1" source="7WCWIDbQqb9u4QPVZEdH-1" target="0">
                    <mxGeometry relative="1" as="geometry"/>
                </mxCell>
            </root>
        </mxGraphModel>
    </diagram>
</mxfile>